<svg width="142" height="148" viewBox="0 0 142 148" fill="none" xmlns="http://www.w3.org/2000/svg">
<path d="M40.5 56V87.3382C40.5 106.95 32.6092 125.736 18.6052 139.465L15 143H67.3643C105.547 143 136.5 112.047 136.5 73.8643V73.8643C136.5 39.2294 110.191 10.1224 75.7611 6.35669V6.35669C53.9317 3.96909 32.2889 13.0571 18.807 30.391L5.5 47.5" stroke="white" stroke-width="10" stroke-linecap="round"/>
<circle cx="65" cy="57" r="5" fill="white"/>
<circle cx="106" cy="52" r="5" fill="white"/>
<circle cx="107.5" cy="53.5" r="1.5" fill="#8E8E8E"/>
<circle cx="66.5" cy="58.5" r="1.5" fill="#9A9A9A"/>
<path d="M69 89.5L73.4023 93.7999C82.1469 102.341 96.565 100.522 102.914 90.0766L106 85" stroke="white" stroke-width="6" stroke-linecap="round"/>
</svg>
