<svg width="414" height="330" viewBox="0 0 414 330" fill="none" xmlns="http://www.w3.org/2000/svg">
<rect x="55.5" y="89.5" width="100" height="79" rx="1.5" fill="url(#paint0_linear_416_309)" stroke="#464A57"/>
<path d="M149.5 221L145 215.5L149.5 202L159.5 207.5L149.5 221Z" fill="#233AD1"/>
<path d="M256 221L258.406 218.059C259.71 216.466 260.105 214.316 259.454 212.363L256 202L246 207.5L256 221Z" fill="#233AD1"/>
<g filter="url(#filter0_f_416_309)">
<path d="M136.5 109.997L136.96 126.067C136.98 126.762 136.301 127.265 135.642 127.043L135.502 126.996" stroke="black"/>
</g>
<path d="M123.906 108.895C123.959 108.386 124.389 108 124.9 108H136.92C137.503 108 137.962 108.496 137.917 109.077L136.574 126.544C136.532 127.079 136.078 127.485 135.542 127.467L123.072 127.037C122.493 127.017 122.052 126.51 122.112 125.933L123.906 108.895Z" fill="#D9D9D9"/>
<g filter="url(#filter1_f_416_309)">
<line x1="126.5" y1="111.5" x2="135.5" y2="111.5" stroke="black" stroke-linecap="round"/>
</g>
<g filter="url(#filter2_f_416_309)">
<line x1="125.5" y1="118.5" x2="134.5" y2="118.5" stroke="black" stroke-linecap="round"/>
</g>
<g filter="url(#filter3_f_416_309)">
<line x1="125.5" y1="124.5" x2="134.5" y2="124.5" stroke="black" stroke-linecap="round"/>
</g>
<path d="M107 131H116V135.5H108.243C107.447 135.5 106.684 135.816 106.121 136.379L104.154 138.346C103.414 139.086 102.994 140.086 102.983 141.132L102.504 186.588L105 189.5H77.5L80 186.5V139.5L87.5 131H107Z" fill="#57609A"/>
<g filter="url(#filter4_d_416_309)">
<path d="M87.5 131H106.5L98.9992 139.5H80L87.5 131Z" fill="#D9D9D9"/>
</g>
<g filter="url(#filter5_d_416_309)">
<rect x="80" y="140" width="19" height="47" fill="#D9D9D9"/>
</g>
<g filter="url(#filter6_f_416_309)">
<path d="M110.5 133.5L121 132L135 157.5L125.5 153.5L106.5 141.5L110.5 133.5Z" fill="#090909"/>
<path d="M107.15 141.319L110.83 133.958L120.728 132.544L133.871 156.482L125.732 153.055L107.15 141.319Z" stroke="black"/>
</g>
<ellipse cx="136" cy="188.5" rx="7" ry="5.5" fill="url(#paint1_diamond_416_309)"/>
<rect x="27" y="306" width="4" height="11" fill="#490D0D"/>
<path d="M17.5 279.44V269.439C17.5 266.293 18.827 263.294 21.1546 261.178C25.3434 257.37 31.7933 257.364 36.0651 261.078C38.5403 263.231 40 266.383 40 269.664V278.639C40 281.153 40.7694 283.606 42.2049 285.67C45.5704 290.507 45.0355 297.052 40.9291 301.279L39.8142 302.427C34.7855 307.603 26.6812 308.204 20.944 303.826L20.675 303.62C15.5283 299.693 13.5741 292.85 15.8702 286.797L16.4149 285.361C17.1323 283.469 17.5 281.463 17.5 279.44Z" fill="url(#paint2_linear_416_309)"/>
<path d="M16 316.5H42.5L38.5 329H19L16 316.5Z" fill="#5D0202"/>
<path d="M15 312H44L43.6801 315.199C43.5779 316.221 42.7175 317 41.69 317H17.31C16.2825 317 15.4221 316.221 15.3199 315.199L15 312Z" fill="url(#paint3_linear_416_309)"/>
<path d="M201 251H207V320.624C207 322.204 206.844 323.781 206.534 325.33L206.5 325.5C204.913 324.548 202.99 324.337 201.234 324.922L201 325V251Z" fill="url(#paint4_linear_416_309)"/>
<path d="M191 246H217V249C217 250.657 215.657 252 214 252H194C192.343 252 191 250.657 191 249V246Z" fill="#2438BC"/>
<path d="M174.659 235.576C175.466 233.425 177.522 232 179.82 232H226.178C228.424 232 230.382 233.529 230.927 235.708L231.089 236.357C231.687 238.749 231.687 241.251 231.089 243.643C230.449 246.204 228.148 248 225.509 248H179.82C177.522 248 175.466 246.575 174.659 244.424C173.589 241.571 173.589 238.429 174.659 235.576Z" fill="url(#paint5_linear_416_309)"/>
<path d="M160.201 199.924L127.647 246.083C127.302 246.572 127.46 247.251 127.985 247.537L159.485 264.719C159.778 264.879 160.145 264.793 160.336 264.52L162.821 260.97C167.9 253.714 171.66 245.618 173.927 237.055C174.559 234.665 176.722 233 179.195 233H227.254C229.146 233 230.779 234.325 231.169 236.176L231.828 239.31C232.27 241.408 233.188 243.378 234.512 245.065L251.835 267.152C252.194 267.61 252.866 267.666 253.296 267.274L280.273 242.663C280.677 242.295 280.71 241.672 280.349 241.262L243.799 199.838C243.609 199.623 243.336 199.5 243.049 199.5H161.018C160.693 199.5 160.389 199.658 160.201 199.924Z" fill="url(#paint6_linear_416_309)"/>
<ellipse cx="143.344" cy="256.552" rx="19.3071" ry="5" transform="rotate(28.6385 143.344 256.552)" fill="#2438BC"/>
<path d="M145.501 251.999L146.964 252.489C148.945 253.151 150.694 254.37 152 256.001L144.644 266.594L138.999 263.017L145.501 251.999Z" fill="#DDC2CB"/>
<ellipse cx="266.552" cy="254.796" rx="19.3071" ry="5" transform="rotate(137.138 266.552 254.796)" fill="#1F2E95"/>
<g filter="url(#filter7_i_416_309)">
<path d="M259.904 254.966L260.739 253.689C261.902 251.91 263.657 250.6 265.693 249.991L275.522 262.656L270.383 266.93L259.904 254.966Z" fill="#DDC2CB"/>
</g>
<path d="M151.31 207.841L149.766 208.365C145.957 209.658 144.548 214.312 147 217.5L145.677 216.971C143.64 216.156 142.639 213.853 143.434 211.809L154.165 184.176C159.108 171.446 169.654 161.714 182.739 157.805L183.769 157.498C194.721 154.226 206.352 153.963 217.441 156.735C235.527 161.257 250.024 174.748 255.832 192.463L256.5 194.5L260.741 207.577C261.841 210.969 261.189 214.685 259 217.5C259 212.764 255.863 208.6 251.31 207.294L245.393 205.596C214.535 196.744 181.71 197.527 151.31 207.841Z" fill="url(#paint7_angular_416_309)"/>
<path d="M163.259 163.384L165.171 163.756C167.274 164.164 168.632 166.219 168.183 168.314L168.054 168.915C167.698 170.576 166.726 172.042 165.334 173.016L163.494 174.305C162.87 174.741 162.074 174.85 161.356 174.596C158.82 173.701 156.536 176.438 157.87 178.773L158 179L157.257 179.743C154.948 182.052 151.17 181.941 149 179.5L149.658 173.416C150.38 166.735 156.662 162.101 163.259 163.384Z" fill="url(#paint8_linear_416_309)"/>
<ellipse cx="153.5" cy="179.5" rx="4.5" ry="2.5" fill="url(#paint9_linear_416_309)"/>
<path d="M152 178.146L152 177.901C152 177.662 152.153 177.45 152.38 177.374C153.114 177.13 153.899 177.081 154.658 177.232L155.9 177.481C155.961 177.493 156.01 177.54 156.025 177.6C156.334 178.836 157.02 179.945 157.987 180.774L160.001 182.501C160.92 182.501 161.76 183.02 162.171 183.841L163 185.5L157.5 185.5C157.779 184.662 157.346 183.754 156.519 183.444L155.478 183.054C154.517 182.694 153.694 182.04 153.125 181.186L152.751 180.625C152.262 179.891 152 179.028 152 178.146Z" fill="url(#paint10_linear_416_309)"/>
<path d="M291.5 67.5H289.5L287 69V72.5L289 74L291.5 67.5Z" fill="#083FA9"/>
<path d="M300.883 70.9982L302.864 71.2698L305.499 72.9999L304.662 76.563L302.477 77.7775L300.883 70.9982Z" fill="#083FA9"/>
<g filter="url(#filter8_i_416_309)">
<path d="M289.465 57.3395L285 56L282.974 54.4804C281.957 53.7177 281.9 52.2123 282.857 51.3752L285 49.5L290.324 51.2748C291.475 51.6583 292.699 50.9379 292.923 49.746L296.59 30.1873C296.828 28.919 297.935 28 299.225 28C300.384 28 301.236 29.0847 300.962 30.2101L297.235 45.5345C297.105 46.0687 297.431 46.6077 297.964 46.741L298.149 46.7873C298.636 46.909 299.138 46.6511 299.322 46.1843L305.778 29.8286C306.179 28.8136 307.319 28.3071 308.341 28.6903L308.605 28.7892C309.648 29.1804 310.17 30.3484 309.766 31.3867L304.03 46.1376C303.775 46.7931 304.258 47.5 304.962 47.5H305L305.628 46.4528C306.483 45.028 308.64 45.378 309 47V49.882C309 50.2607 309.214 50.607 309.553 50.7764L310 51L311.743 49.2569C312.216 48.784 312.894 48.5788 313.55 48.7099L315 49C315.232 49 315.384 49.2419 315.284 49.4508L314.265 51.5735L313.306 54.9275C311.803 60.1903 308.769 64.8876 304.591 68.423C304.531 68.4734 304.487 68.5391 304.462 68.613L301.611 77.1671C301.543 77.3711 301.366 77.5192 301.153 77.5496L300.566 77.6334C296.652 78.1926 292.666 77.3331 289.33 75.2103C289.135 75.0859 289.046 74.8468 289.113 74.6248L291.919 65.2713C291.972 65.0939 291.975 64.9052 291.927 64.7263L290.144 58.0397C290.054 57.7043 289.798 57.4393 289.465 57.3395Z" fill="#DDC2CB"/>
</g>
<path d="M285 56L289.465 57.3395C289.798 57.4393 290.054 57.7043 290.144 58.0397L291.927 64.7263C291.975 64.9052 291.972 65.0939 291.919 65.2713L289.113 74.6248C289.046 74.8468 289.135 75.0859 289.33 75.2103V75.2103C292.666 77.3331 296.652 78.1926 300.566 77.6334L301.153 77.5496C301.366 77.5192 301.543 77.3711 301.611 77.1671L304.462 68.613C304.487 68.5391 304.531 68.4734 304.591 68.423V68.423C308.769 64.8876 311.803 60.1903 313.306 54.9275L315 49M285 56L282.974 54.4804C281.957 53.7177 281.9 52.2123 282.857 51.3752L285 49.5M285 56L290.685 56.8122C291.482 56.926 292.269 56.5513 292.683 55.8613L292.981 55.365C293.267 54.8885 293.11 54.2703 292.631 53.9886L285 49.5M285 49.5L290.324 51.2748C291.475 51.6583 292.699 50.9379 292.923 49.746L296.59 30.1873C296.828 28.919 297.935 28 299.225 28V28C300.384 28 301.236 29.0847 300.962 30.2101L297.235 45.5345C297.105 46.0687 297.431 46.6076 297.964 46.741L298.149 46.7873C298.636 46.909 299.138 46.6511 299.322 46.1843L305.778 29.8286C306.179 28.8136 307.319 28.3071 308.341 28.6903L308.605 28.7892C309.648 29.1804 310.17 30.3484 309.766 31.3867L304.03 46.1376C303.775 46.7931 304.258 47.5 304.962 47.5H305M305 47.5L305.628 46.4528C306.483 45.028 308.64 45.378 309 47V47M305 47.5L301.631 57.1853C301.289 58.1705 301.844 59.2413 302.847 59.5278V59.5278C303.774 59.7927 304.747 59.2869 305.062 58.3758L309 47M310 51L311.743 49.2569C312.216 48.784 312.894 48.5788 313.55 48.7099L315 49M310 51L309.553 50.7764C309.214 50.607 309 50.2607 309 49.882V47M310 51L307.74 59.1347C307.595 59.6565 307.785 60.2139 308.218 60.5388L309.164 61.2476C309.338 61.3783 309.588 61.3171 309.682 61.1208L315.284 49.4508C315.384 49.2419 315.232 49 315 49V49" stroke="#D59FAE"/>
<path d="M291 67.4996L290.045 67.847C287.865 68.6395 287.172 71.3809 288.713 73.1145C291.651 76.4202 296.194 77.8016 300.475 76.6916L302.995 76.0383C304.767 75.579 305.369 73.3686 304.074 72.0745L304 72L306.08 72.6923C307.576 73.19 308.69 74.4515 308.999 75.9973L307.816 85.857C307.635 87.3648 306.356 88.4996 304.838 88.4996L301.999 88.4996L288.025 128.481C285.381 136.045 280.924 142.844 275.042 148.285L246.134 175.025C244.807 176.252 242.939 176.703 241.199 176.215L238.284 175.399C233.986 174.195 230.447 171.141 228.627 167.065C227.658 164.895 228.205 162.347 229.979 160.766L241.958 150.089C256.713 136.939 267.652 120.057 273.625 101.218L283.444 70.2514C283.799 69.1316 284.592 68.2033 285.643 67.6781C286.528 67.2359 287.524 67.0654 288.505 67.188L291 67.4996Z" fill="url(#paint11_linear_416_309)"/>
<g filter="url(#filter9_f_416_309)">
<path d="M307 88H294.127C289.884 88 285.814 86.3143 282.814 83.3137L280.5 81" stroke="#040E32" stroke-linecap="round"/>
</g>
<path d="M277.459 278.715L274.923 278.982C271.809 279.31 268.714 278.214 266.5 276L272.361 272.651C273.115 272.22 273.936 271.921 274.791 271.765C281.226 270.595 287.443 268.447 293.228 265.394L302.5 260.5L305 258.5C305.094 257.886 306 257.955 306 258.576V258.7C306 261.742 304.649 264.626 302.313 266.573L298.792 269.506C297.606 270.495 296.26 271.273 294.811 271.807L287.5 274.5L281.336 277.582C280.122 278.189 278.809 278.573 277.459 278.715Z" fill="#4852D1"/>
<path d="M306 254.659V259L271 277C268.048 277.984 265 275.787 265 272.675V264.5H265.125C268.907 264.5 272.555 263.1 275.367 260.57C275.77 260.207 276 259.69 276 259.148V257C276 255.895 276.895 255 278 255H284L293.803 255.949C297.517 256.308 301.254 255.555 304.54 253.786C305.2 253.431 306 253.909 306 254.659Z" fill="url(#paint12_linear_416_309)"/>
<path d="M297 261.5L305.5 256.5L285.25 264L274.5 267L265.801 271.121C265.344 271.337 265.12 271.861 265.28 272.341L265.627 273.38C265.872 274.117 266.286 274.786 266.835 275.335L267.5 276C271.435 272.065 276.308 269.198 281.659 267.669L284 267L297 261.5Z" fill="#212EBF"/>
<path d="M181 150.676C181 147.218 183.658 144.34 187.105 144.066L187.597 144.027C196.185 143.343 204.925 143.352 213.514 144.036C217.145 144.325 220 147.36 220 151.003C220 154.346 217.384 157.104 214.046 157.281L200.5 158L187.28 157.299C183.759 157.112 181 154.202 181 150.676Z" fill="url(#paint13_linear_416_309)"/>
<path d="M109 254.659V259L144 277C146.952 277.984 150 275.787 150 272.675V264.5H149.875C146.093 264.5 142.445 263.1 139.633 260.57C139.23 260.207 139 259.69 139 259.148V257C139 255.895 138.105 255 137 255H131L121.197 255.949C117.483 256.308 113.746 255.555 110.46 253.786C109.8 253.431 109 253.909 109 254.659Z" fill="url(#paint14_linear_416_309)"/>
<path d="M137.541 278.715L140.077 278.982C143.191 279.31 146.286 278.214 148.5 276L142.639 272.651C141.885 272.22 141.064 271.921 140.209 271.765C133.774 270.595 127.557 268.447 121.772 265.394L112.5 260.5L110 258.5C109.906 257.886 109 257.955 109 258.576V258.7C109 261.742 110.351 264.626 112.687 266.573L116.208 269.506C117.394 270.495 118.74 271.273 120.189 271.807L127.5 274.5L133.664 277.582C134.878 278.189 136.191 278.573 137.541 278.715Z" fill="#4852D1"/>
<path d="M118 261.5L109.5 256.5L129.75 264L140.5 267L149.199 271.121C149.656 271.337 149.88 271.861 149.72 272.341L149.373 273.38C149.128 274.117 148.714 274.786 148.165 275.335L147.5 276C143.565 272.065 138.692 269.198 133.341 267.669L131 267L118 261.5Z" fill="#212EBF"/>
<ellipse cx="168.613" cy="119.138" rx="5.68362" ry="10.0892" transform="rotate(-15.7368 168.613 119.138)" fill="#E198A1"/>
<ellipse cx="234.5" cy="119.5" rx="8.5" ry="9.5" fill="#975C63"/>
<ellipse cx="201.5" cy="115.5" rx="33.5" ry="31.5" fill="url(#paint15_linear_416_309)"/>
<g filter="url(#filter10_f_416_309)">
<ellipse cx="185.5" cy="131" rx="4.5" ry="5" fill="#FFA8B0"/>
</g>
<ellipse cx="188" cy="115" rx="10" ry="7" fill="white"/>
<path d="M186.5 115C186.5 117.536 184.661 119.5 182.5 119.5C180.339 119.5 178.5 117.536 178.5 115C178.5 112.464 180.339 110.5 182.5 110.5C184.661 110.5 186.5 112.464 186.5 115Z" fill="black" stroke="black"/>
<ellipse cx="217" cy="116" rx="10" ry="7" fill="white"/>
<path d="M215.5 116C215.5 118.536 213.661 120.5 211.5 120.5C209.339 120.5 207.5 118.536 207.5 116C207.5 113.464 209.339 111.5 211.5 111.5C213.661 111.5 215.5 113.464 215.5 116Z" fill="black" stroke="black"/>
<g filter="url(#filter11_if_416_309)">
<path d="M199.168 121.748L200.576 119.636C200.826 119.26 201.297 119.099 201.725 119.242L204.816 120.272C205.225 120.408 205.5 120.79 205.5 121.221V125.813C205.5 126.227 205.245 126.598 204.859 126.747L200.359 128.477C199.704 128.729 199 128.246 199 127.544V122.303C199 122.105 199.058 121.912 199.168 121.748Z" fill="#E6B8CF"/>
</g>
<g filter="url(#filter12_f_416_309)">
<path d="M190 133.5L191.516 135.648C196.476 142.674 207.006 142.333 211.5 135V135M211.5 135L212.5 131M211.5 135L217 136.5" stroke="black" stroke-linecap="round"/>
</g>
<g filter="url(#filter13_f_416_309)">
<ellipse cx="218.5" cy="130" rx="4.5" ry="5" fill="#D6838B"/>
</g>
<path d="M192.919 59.6617L190 65.5H214V65.1795C214 62.7738 213.332 60.4152 212.072 58.3663L211.489 57.4203C208.509 52.5769 202.07 51.2337 197.402 54.4814C195.498 55.8059 193.956 57.5871 192.919 59.6617Z" fill="url(#paint16_linear_416_309)"/>
<ellipse cx="202" cy="78" rx="51" ry="13" fill="url(#paint17_radial_416_309)"/>
<path d="M214.575 99.3752L214.288 98.8361L213.816 99.2239L206.18 105.5H168C167.718 105.5 167.51 105.275 167.52 105.021C167.814 97.8472 171.333 90.9985 177.427 85.8766C183.799 80.5203 192.457 77.5 201.5 77.5C210.543 77.5 219.201 80.5203 225.573 85.8766C231.667 90.9985 235.186 97.8472 235.48 105.021C235.49 105.275 235.282 105.5 235 105.5H217.835L214.575 99.3752Z" fill="url(#paint18_linear_416_309)" stroke="url(#paint19_linear_416_309)"/>
<g filter="url(#filter14_f_416_309)">
<ellipse cx="294" cy="175.5" rx="4" ry="4.5" fill="#D9D9D9"/>
</g>
<path d="M247.5 168.5L262.5 156H265V157.5L248.5 170H247.5V168.5Z" fill="#9F0000"/>
<path d="M266.365 117.892C266.421 117.107 267.074 116.5 267.861 116.5H322.824C323.702 116.5 324.393 117.251 324.319 118.126L321.156 155.626C321.091 156.403 320.441 157 319.662 157H265.15C264.279 157 263.591 156.261 263.654 155.392L266.365 117.892Z" fill="#712532" stroke="#712532"/>
<path d="M263 157H319.546C321.362 157 322.544 158.912 321.732 160.537C321.578 160.845 321.392 161.136 321.177 161.404L313.5 171L247.5 170L263 157Z" fill="#55141F"/>
<g filter="url(#filter15_d_416_309)">
<path d="M273.65 170.5H261.446C260.408 170.5 260.057 169.115 260.969 168.621L268.831 164.362C269.27 164.124 269.761 164 270.26 164H311.5C312.605 164 313.5 164.895 313.5 166V189.5H273.65V170.5Z" fill="url(#paint20_linear_416_309)"/>
</g>
<path d="M153 187C153 185.895 153.895 185 155 185H253C254.105 185 255 185.895 255 187V190H153V187Z" fill="#060606"/>
<path d="M323.5 199H336.5L336.991 321.255C336.996 322.451 338.042 323.375 339.229 323.232L343.71 322.695C347.233 322.272 350.675 323.958 352.5 327L354 329.5H309C309.541 324.899 313.86 321.715 318.416 322.558L322.318 323.281C322.933 323.395 323.5 322.923 323.5 322.298V199Z" fill="url(#paint21_linear_416_309)"/>
<path d="M65 199H78L78.491 321.255C78.4958 322.451 79.5419 323.375 80.7293 323.232L85.2104 322.695C88.7328 322.272 92.1749 323.958 94.0001 327L95.5 329.5H50.5C51.0413 324.899 55.3604 321.715 59.9155 322.558L63.8179 323.281C64.4327 323.395 65 322.923 65 322.298V199Z" fill="url(#paint22_linear_416_309)"/>
<path d="M28 191C28 189.895 28.8954 189 30 189H373.5C374.605 189 375.5 189.895 375.5 191V198.009C375.5 199.11 374.61 200.004 373.509 200.009L30.0086 201.491C28.9007 201.496 28 200.599 28 199.491V191Z" fill="url(#paint23_linear_416_309)"/>
<path d="M193.938 316.486L202 313.5V317.5L196.105 319.268C193.411 320.077 190.959 321.541 188.969 323.531L187.5 325C186.581 324.081 185.221 323.76 183.988 324.171L183 324.5L184.582 322.775C187.157 319.965 190.364 317.81 193.938 316.486Z" fill="url(#paint24_linear_416_309)"/>
<path d="M215.104 316.001L207 313V317L212.895 318.768C215.589 319.577 218.041 321.041 220.031 323.031L221.5 324.5L222.693 324.202C223.225 324.069 223.779 324.047 224.321 324.137L226.5 324.5L224.403 322.229C221.837 319.449 218.651 317.315 215.104 316.001Z" fill="url(#paint25_linear_416_309)"/>
<ellipse cx="187" cy="326.5" rx="1" ry="2.5" fill="black"/>
<ellipse cx="222" cy="326.5" rx="1" ry="2.5" fill="black"/>
<ellipse cx="206" cy="326.5" rx="1" ry="2.5" fill="black"/>
<path d="M183.03 324.853C183.094 324.643 183.288 324.5 183.508 324.5H186.5V328.5H183.139L183.021 328.117C182.697 327.064 182.697 325.936 183.021 324.883L183.03 324.853Z" fill="#020202" stroke="black"/>
<path d="M225.97 324.853C225.906 324.643 225.712 324.5 225.492 324.5H222.5V328.5H225.861L225.979 328.117C226.303 327.064 226.303 325.936 225.979 324.883L225.97 324.853Z" fill="#020202" stroke="black"/>
<path d="M201.171 324.771C201.231 324.608 201.387 324.5 201.561 324.5H205.5V328.5H201.271L201.171 328.229C200.759 327.113 200.759 325.887 201.171 324.771Z" fill="#020202" stroke="black"/>
<defs>
<filter id="filter0_f_416_309" x="134.342" y="108.98" width="4.11914" height="19.6172" filterUnits="userSpaceOnUse" color-interpolation-filters="sRGB">
<feFlood flood-opacity="0" result="BackgroundImageFix"/>
<feBlend mode="normal" in="SourceGraphic" in2="BackgroundImageFix" result="shape"/>
<feGaussianBlur stdDeviation="0.5" result="effect1_foregroundBlur_416_309"/>
</filter>
<filter id="filter1_f_416_309" x="124" y="109" width="14" height="5" filterUnits="userSpaceOnUse" color-interpolation-filters="sRGB">
<feFlood flood-opacity="0" result="BackgroundImageFix"/>
<feBlend mode="normal" in="SourceGraphic" in2="BackgroundImageFix" result="shape"/>
<feGaussianBlur stdDeviation="1" result="effect1_foregroundBlur_416_309"/>
</filter>
<filter id="filter2_f_416_309" x="123" y="116" width="14" height="5" filterUnits="userSpaceOnUse" color-interpolation-filters="sRGB">
<feFlood flood-opacity="0" result="BackgroundImageFix"/>
<feBlend mode="normal" in="SourceGraphic" in2="BackgroundImageFix" result="shape"/>
<feGaussianBlur stdDeviation="1" result="effect1_foregroundBlur_416_309"/>
</filter>
<filter id="filter3_f_416_309" x="123" y="122" width="14" height="5" filterUnits="userSpaceOnUse" color-interpolation-filters="sRGB">
<feFlood flood-opacity="0" result="BackgroundImageFix"/>
<feBlend mode="normal" in="SourceGraphic" in2="BackgroundImageFix" result="shape"/>
<feGaussianBlur stdDeviation="1" result="effect1_foregroundBlur_416_309"/>
</filter>
<filter id="filter4_d_416_309" x="79" y="130" width="30.5" height="12.5" filterUnits="userSpaceOnUse" color-interpolation-filters="sRGB">
<feFlood flood-opacity="0" result="BackgroundImageFix"/>
<feColorMatrix in="SourceAlpha" type="matrix" values="0 0 0 0 0 0 0 0 0 0 0 0 0 0 0 0 0 0 127 0" result="hardAlpha"/>
<feOffset dx="1" dy="1"/>
<feGaussianBlur stdDeviation="1"/>
<feComposite in2="hardAlpha" operator="out"/>
<feColorMatrix type="matrix" values="0 0 0 0 0.154583 0 0 0 0 0.217742 0 0 0 0 0.441667 0 0 0 1 0"/>
<feBlend mode="normal" in2="BackgroundImageFix" result="effect1_dropShadow_416_309"/>
<feBlend mode="normal" in="SourceGraphic" in2="effect1_dropShadow_416_309" result="shape"/>
</filter>
<filter id="filter5_d_416_309" x="78" y="136" width="25" height="53" filterUnits="userSpaceOnUse" color-interpolation-filters="sRGB">
<feFlood flood-opacity="0" result="BackgroundImageFix"/>
<feColorMatrix in="SourceAlpha" type="matrix" values="0 0 0 0 0 0 0 0 0 0 0 0 0 0 0 0 0 0 127 0" result="hardAlpha"/>
<feOffset dx="1" dy="-1"/>
<feGaussianBlur stdDeviation="1.5"/>
<feComposite in2="hardAlpha" operator="out"/>
<feColorMatrix type="matrix" values="0 0 0 0 0.12375 0 0 0 0 0.1731 0 0 0 0 0.3 0 0 0 1 0"/>
<feBlend mode="normal" in2="BackgroundImageFix" result="effect1_dropShadow_416_309"/>
<feBlend mode="normal" in="SourceGraphic" in2="effect1_dropShadow_416_309" result="shape"/>
</filter>
<filter id="filter6_f_416_309" x="95.5" y="121" width="50.5" height="47.5" filterUnits="userSpaceOnUse" color-interpolation-filters="sRGB">
<feFlood flood-opacity="0" result="BackgroundImageFix"/>
<feBlend mode="normal" in="SourceGraphic" in2="BackgroundImageFix" result="shape"/>
<feGaussianBlur stdDeviation="5.5" result="effect1_foregroundBlur_416_309"/>
</filter>
<filter id="filter7_i_416_309" x="259.904" y="245.992" width="15.6172" height="20.9375" filterUnits="userSpaceOnUse" color-interpolation-filters="sRGB">
<feFlood flood-opacity="0" result="BackgroundImageFix"/>
<feBlend mode="normal" in="SourceGraphic" in2="BackgroundImageFix" result="shape"/>
<feColorMatrix in="SourceAlpha" type="matrix" values="0 0 0 0 0 0 0 0 0 0 0 0 0 0 0 0 0 0 127 0" result="hardAlpha"/>
<feOffset dy="-5"/>
<feGaussianBlur stdDeviation="2"/>
<feComposite in2="hardAlpha" operator="arithmetic" k2="-1" k3="1"/>
<feColorMatrix type="matrix" values="0 0 0 0 0.141176 0 0 0 0 0.219608 0 0 0 0 0.737255 0 0 0 1 0"/>
<feBlend mode="normal" in2="shape" result="effect1_innerShadow_416_309"/>
</filter>
<filter id="filter8_i_416_309" x="281.674" y="27.5" width="36.1426" height="51.8008" filterUnits="userSpaceOnUse" color-interpolation-filters="sRGB">
<feFlood flood-opacity="0" result="BackgroundImageFix"/>
<feBlend mode="normal" in="SourceGraphic" in2="BackgroundImageFix" result="shape"/>
<feColorMatrix in="SourceAlpha" type="matrix" values="0 0 0 0 0 0 0 0 0 0 0 0 0 0 0 0 0 0 127 0" result="hardAlpha"/>
<feOffset dx="2" dy="1"/>
<feGaussianBlur stdDeviation="2"/>
<feComposite in2="hardAlpha" operator="arithmetic" k2="-1" k3="1"/>
<feColorMatrix type="matrix" values="0 0 0 0 0.8375 0 0 0 0 0.411771 0 0 0 0 0.52639 0 0 0 1 0"/>
<feBlend mode="normal" in2="shape" result="effect1_innerShadow_416_309"/>
</filter>
<filter id="filter9_f_416_309" x="276" y="76.5" width="35.5" height="16" filterUnits="userSpaceOnUse" color-interpolation-filters="sRGB">
<feFlood flood-opacity="0" result="BackgroundImageFix"/>
<feBlend mode="normal" in="SourceGraphic" in2="BackgroundImageFix" result="shape"/>
<feGaussianBlur stdDeviation="2" result="effect1_foregroundBlur_416_309"/>
</filter>
<filter id="filter10_f_416_309" x="174" y="119" width="23" height="24" filterUnits="userSpaceOnUse" color-interpolation-filters="sRGB">
<feFlood flood-opacity="0" result="BackgroundImageFix"/>
<feBlend mode="normal" in="SourceGraphic" in2="BackgroundImageFix" result="shape"/>
<feGaussianBlur stdDeviation="3.5" result="effect1_foregroundBlur_416_309"/>
</filter>
<filter id="filter11_if_416_309" x="197" y="117.191" width="10.5" height="13.3516" filterUnits="userSpaceOnUse" color-interpolation-filters="sRGB">
<feFlood flood-opacity="0" result="BackgroundImageFix"/>
<feBlend mode="normal" in="SourceGraphic" in2="BackgroundImageFix" result="shape"/>
<feColorMatrix in="SourceAlpha" type="matrix" values="0 0 0 0 0 0 0 0 0 0 0 0 0 0 0 0 0 0 127 0" result="hardAlpha"/>
<feOffset dx="-3" dy="1"/>
<feGaussianBlur stdDeviation="1"/>
<feComposite in2="hardAlpha" operator="arithmetic" k2="-1" k3="1"/>
<feColorMatrix type="matrix" values="0 0 0 0 0 0 0 0 0 0 0 0 0 0 0 0 0 0 0.25 0"/>
<feBlend mode="normal" in2="shape" result="effect1_innerShadow_416_309"/>
<feGaussianBlur stdDeviation="1" result="effect2_foregroundBlur_416_309"/>
</filter>
<filter id="filter12_f_416_309" x="188.5" y="129.5" width="30" height="12.7148" filterUnits="userSpaceOnUse" color-interpolation-filters="sRGB">
<feFlood flood-opacity="0" result="BackgroundImageFix"/>
<feBlend mode="normal" in="SourceGraphic" in2="BackgroundImageFix" result="shape"/>
<feGaussianBlur stdDeviation="0.5" result="effect1_foregroundBlur_416_309"/>
</filter>
<filter id="filter13_f_416_309" x="207" y="118" width="23" height="24" filterUnits="userSpaceOnUse" color-interpolation-filters="sRGB">
<feFlood flood-opacity="0" result="BackgroundImageFix"/>
<feBlend mode="normal" in="SourceGraphic" in2="BackgroundImageFix" result="shape"/>
<feGaussianBlur stdDeviation="3.5" result="effect1_foregroundBlur_416_309"/>
</filter>
<filter id="filter14_f_416_309" x="289" y="170" width="10" height="11" filterUnits="userSpaceOnUse" color-interpolation-filters="sRGB">
<feFlood flood-opacity="0" result="BackgroundImageFix"/>
<feBlend mode="normal" in="SourceGraphic" in2="BackgroundImageFix" result="shape"/>
<feGaussianBlur stdDeviation="0.5" result="effect1_foregroundBlur_416_309"/>
</filter>
<filter id="filter15_d_416_309" x="258.443" y="160" width="57.0566" height="29.5" filterUnits="userSpaceOnUse" color-interpolation-filters="sRGB">
<feFlood flood-opacity="0" result="BackgroundImageFix"/>
<feColorMatrix in="SourceAlpha" type="matrix" values="0 0 0 0 0 0 0 0 0 0 0 0 0 0 0 0 0 0 127 0" result="hardAlpha"/>
<feOffset dy="-2"/>
<feGaussianBlur stdDeviation="1"/>
<feComposite in2="hardAlpha" operator="out"/>
<feColorMatrix type="matrix" values="0 0 0 0 0 0 0 0 0 0 0 0 0 0 0 0 0 0 0.73 0"/>
<feBlend mode="normal" in2="BackgroundImageFix" result="effect1_dropShadow_416_309"/>
<feBlend mode="normal" in="SourceGraphic" in2="effect1_dropShadow_416_309" result="shape"/>
</filter>
<linearGradient id="paint0_linear_416_309" x1="63" y1="106" x2="147.5" y2="107" gradientUnits="userSpaceOnUse">
<stop offset="0.257666" stop-color="#5A5D67"/>
<stop offset="0.694636" stop-color="#464A57"/>
</linearGradient>
<radialGradient id="paint1_diamond_416_309" cx="0" cy="0" r="1" gradientUnits="userSpaceOnUse" gradientTransform="translate(132 182) rotate(50.1944) scale(7.81025 8.68696)">
<stop offset="0.142767" stop-color="#D8D8D8"/>
<stop offset="1"/>
</radialGradient>
<linearGradient id="paint2_linear_416_309" x1="22" y1="286.5" x2="42.5" y2="283" gradientUnits="userSpaceOnUse">
<stop stop-color="#A6CD73"/>
<stop offset="0.785474" stop-color="#343E29"/>
</linearGradient>
<linearGradient id="paint3_linear_416_309" x1="20" y1="314" x2="41" y2="317" gradientUnits="userSpaceOnUse">
<stop offset="0.0972214" stop-color="#7682DF"/>
<stop offset="0.869868" stop-color="#3E52D8"/>
</linearGradient>
<linearGradient id="paint4_linear_416_309" x1="210" y1="257.603" x2="195.638" y2="312.755" gradientUnits="userSpaceOnUse">
<stop stop-color="#2438BC"/>
<stop offset="1" stop-color="#5E6CD6"/>
</linearGradient>
<linearGradient id="paint5_linear_416_309" x1="182" y1="235" x2="226" y2="259" gradientUnits="userSpaceOnUse">
<stop stop-color="#3D0A0A"/>
<stop offset="0.877058" stop-color="#09268C"/>
</linearGradient>
<linearGradient id="paint6_linear_416_309" x1="199" y1="209" x2="147.5" y2="241.5" gradientUnits="userSpaceOnUse">
<stop offset="0.418183" stop-color="#2437BB"/>
<stop offset="0.983948" stop-color="#6E7BDD"/>
</linearGradient>
<radialGradient id="paint7_angular_416_309" cx="0" cy="0" r="1" gradientUnits="userSpaceOnUse" gradientTransform="translate(202 199) rotate(89.2258) scale(18.5017 34.2993)">
<stop offset="0.271101" stop-color="#6271DC"/>
<stop offset="0.48627" stop-color="white"/>
<stop offset="0.725651" stop-color="#7682DE"/>
</radialGradient>
<linearGradient id="paint8_linear_416_309" x1="166" y1="159" x2="158.75" y2="184" gradientUnits="userSpaceOnUse">
<stop stop-color="white"/>
<stop offset="1" stop-color="#7581DE"/>
</linearGradient>
<linearGradient id="paint9_linear_416_309" x1="153.5" y1="177" x2="153.5" y2="182" gradientUnits="userSpaceOnUse">
<stop stop-color="#0A1036"/>
<stop offset="0.795905" stop-color="#3A4ED7"/>
</linearGradient>
<linearGradient id="paint10_linear_416_309" x1="154" y1="176.5" x2="156" y2="185" gradientUnits="userSpaceOnUse">
<stop stop-color="#E5B5BF"/>
<stop offset="1" stop-color="#3447CC"/>
</linearGradient>
<linearGradient id="paint11_linear_416_309" x1="244.002" y1="105" x2="329.002" y2="157" gradientUnits="userSpaceOnUse">
<stop offset="0.23704" stop-color="#D9D9D9"/>
<stop offset="0.388545" stop-color="#7783DE"/>
</linearGradient>
<linearGradient id="paint12_linear_416_309" x1="291" y1="251" x2="272" y2="273.5" gradientUnits="userSpaceOnUse">
<stop offset="0.119353" stop-color="#6A74E7"/>
<stop offset="0.587929" stop-color="#4752D1"/>
</linearGradient>
<linearGradient id="paint13_linear_416_309" x1="187" y1="146" x2="212" y2="154" gradientUnits="userSpaceOnUse">
<stop offset="0.227242" stop-color="#F0F0F0"/>
<stop offset="0.905725" stop-color="#99A1E1"/>
</linearGradient>
<linearGradient id="paint14_linear_416_309" x1="124" y1="251" x2="143" y2="273.5" gradientUnits="userSpaceOnUse">
<stop offset="0.119353" stop-color="#6A74E7"/>
<stop offset="0.587929" stop-color="#4752D1"/>
</linearGradient>
<linearGradient id="paint15_linear_416_309" x1="176.5" y1="111" x2="235" y2="132" gradientUnits="userSpaceOnUse">
<stop stop-color="#E0C5CD"/>
<stop offset="0.638164" stop-color="#CD96A7"/>
</linearGradient>
<linearGradient id="paint16_linear_416_309" x1="202" y1="48.5" x2="202" y2="65.5" gradientUnits="userSpaceOnUse">
<stop offset="0.771716" stop-color="#B06E56"/>
<stop offset="0.849658" stop-color="white"/>
<stop offset="0.895124" stop-color="white"/>
</linearGradient>
<radialGradient id="paint17_radial_416_309" cx="0" cy="0" r="1" gradientUnits="userSpaceOnUse" gradientTransform="translate(205.5 91) rotate(-94.7636) scale(24.0832 94.4802)">
<stop offset="0.315766" stop-color="#5A405C"/>
<stop offset="0.979483" stop-color="#FE9F9F"/>
</radialGradient>
<linearGradient id="paint18_linear_416_309" x1="182.549" y1="91.7458" x2="225.823" y2="98.9558" gradientUnits="userSpaceOnUse">
<stop stop-color="#5D5959"/>
<stop offset="0.6312"/>
</linearGradient>
<linearGradient id="paint19_linear_416_309" x1="172" y1="85.5" x2="228.5" y2="100" gradientUnits="userSpaceOnUse">
<stop stop-color="#5D5A5A"/>
<stop offset="1"/>
</linearGradient>
<linearGradient id="paint20_linear_416_309" x1="286" y1="165" x2="265" y2="167.5" gradientUnits="userSpaceOnUse">
<stop offset="0.622131" stop-color="#353D72"/>
<stop offset="0.746374" stop-color="#6872B3"/>
</linearGradient>
<linearGradient id="paint21_linear_416_309" x1="363.5" y1="291.5" x2="285.5" y2="296" gradientUnits="userSpaceOnUse">
<stop offset="0.37842" stop-color="#1932D3"/>
<stop offset="0.46007" stop-color="#7582DE"/>
</linearGradient>
<linearGradient id="paint22_linear_416_309" x1="105" y1="291.5" x2="27" y2="296" gradientUnits="userSpaceOnUse">
<stop offset="0.37842" stop-color="#1932D3"/>
<stop offset="0.46007" stop-color="#7582DE"/>
</linearGradient>
<linearGradient id="paint23_linear_416_309" x1="31.5" y1="195" x2="375" y2="195" gradientUnits="userSpaceOnUse">
<stop stop-color="#0E28D1"/>
<stop offset="0.472304" stop-color="#4356D8"/>
<stop offset="0.632954" stop-color="#7884DE"/>
<stop offset="0.798731" stop-color="#152ED2"/>
</linearGradient>
<linearGradient id="paint24_linear_416_309" x1="200.5" y1="315" x2="186" y2="323" gradientUnits="userSpaceOnUse">
<stop offset="0.276092" stop-color="#5968D4"/>
<stop offset="1" stop-color="#2439BD"/>
</linearGradient>
<linearGradient id="paint25_linear_416_309" x1="208.5" y1="314.5" x2="223" y2="322.5" gradientUnits="userSpaceOnUse">
<stop offset="0.276092" stop-color="#5968D4"/>
<stop offset="1" stop-color="#2439BD"/>
</linearGradient>
</defs>
</svg>
